<svg viewBox="0 0 745 250" fill="none"
  xmlns="http://www.w3.org/2000/svg">
  <path fill-rule="evenodd" clip-rule="evenodd" d="M359.5 0.548481C339.966 1.64598 318.99 8.43998 301.784 19.2425C283.584 30.669 267.517 48.0415 257.512 67.1125C247.994 85.2555 243.323 104.417 243.342 125.25C243.354 139.291 245.111 150.625 249.271 163.5C255.6 183.091 265.507 199.134 280.46 214.006C300.681 234.117 326.913 246.551 355.418 249.535C363.853 250.418 381.125 249.891 388.936 248.512C434.955 240.387 472.3 208.415 486.775 164.75C491.223 151.33 493.09 139.565 493.083 125C493.074 107.307 490.089 92.546 483.188 76.0735C471.749 48.7715 449.003 25.0995 421.884 12.2745C402.352 3.03748 382.295 -0.732519 359.5 0.548481ZM517.793 8.12048C515.107 8.83098 510.773 13.1015 510.051 15.75C509.241 18.7185 509.278 231.892 510.088 234.596C510.933 237.415 514.06 240.747 516.884 241.837C519.148 242.711 523.876 242.75 627 242.75C730.124 242.75 734.852 242.711 737.116 241.837C739.94 240.747 743.067 237.415 743.912 234.596C744.355 233.118 744.498 206.005 744.489 124.692C744.479 21.075 744.441 16.669 743.561 14.7305C742.317 11.994 738.536 8.75398 735.774 8.05848C732.77 7.30198 520.661 7.36248 517.793 8.12048ZM131.237 9.74298C130.404 10.1685 129.021 11.694 128.161 13.1335C127.301 14.5725 98.2255 64.898 63.5485 124.968C13.9595 210.87 0.5 234.545 0.5 235.868C0.5 238.145 1.71 240.324 3.4835 241.241C4.7835 241.913 19.622 242 133.952 242C231.491 242 263.267 241.857 264.239 241.414C266.16 240.538 267.639 237.834 267.414 235.608C267.276 234.248 250.094 204.067 203.305 123C168.149 62.0875 138.77 11.6145 138.02 10.838C136.337 9.09548 133.423 8.62498 131.237 9.74298Z" />
</svg>
