<svg viewBox="0 0 24 24" fill="none"
  xmlns="http://www.w3.org/2000/svg">
  <g clip-path="url(#a)">
    <path fill-rule="evenodd" clip-rule="evenodd" d="M16.843 6.548a6.521 6.521 0 0 0-4.604-1.8c-3.13 0-5.79 2.113-6.737 4.957a7.188 7.188 0 0 0 0 4.594h.004c.953 2.84 3.607 4.952 6.738 4.952 1.616 0 3.003-.413 4.078-1.143v-.003a5.554 5.554 0 0 0 2.399-3.647h-6.482v-4.62h11.319c.141.802.207 1.622.207 2.438 0 3.65-1.304 6.735-3.574 8.825l.003.002C18.205 22.937 15.476 24 12.239 24a12.002 12.002 0 0 1-10.723-6.61 12.01 12.01 0 0 1 0-10.776A11.998 11.998 0 0 1 12.239 0a11.533 11.533 0 0 1 8.03 3.122l-3.426 3.426Z"/>
  </g>
  <defs>
    <clipPath id="a">
      <path fill="#fff" d="M0 0h24v24H0z"/>
    </clipPath>
  </defs>
</svg>
