<svg viewBox="0 0 24 24" fill="none"
  xmlns="http://www.w3.org/2000/svg">
  <path d="M17.176 8.663a9.362 9.362 0 0 0 5.476 1.76V6.478c-.386 0-.772-.04-1.15-.121v3.104a9.364 9.364 0 0 1-5.476-1.759v8.048c0 4.026-3.252 7.289-7.263 7.289a7.21 7.21 0 0 1-4.043-1.233A7.228 7.228 0 0 0 9.913 24c4.011 0 7.263-3.263 7.263-7.29V8.664Zm1.419-3.978a5.506 5.506 0 0 1-1.419-3.218V.96h-1.09a5.521 5.521 0 0 0 2.509 3.725ZM7.257 18.718a3.328 3.328 0 0 1-.678-2.019 3.328 3.328 0 0 1 4.33-3.178V9.49a7.302 7.302 0 0 0-1.15-.067v3.138a3.328 3.328 0 0 0-4.33 3.178c0 1.302.744 2.43 1.828 2.979Z" fill="#FF004F"/>
  <path d="M16.027 7.703a9.364 9.364 0 0 0 5.476 1.759V6.358a5.492 5.492 0 0 1-2.907-1.673A5.522 5.522 0 0 1 16.087.96h-2.862v15.75a3.329 3.329 0 0 1-3.323 3.324 3.314 3.314 0 0 1-2.645-1.316 3.335 3.335 0 0 1-1.827-2.979 3.328 3.328 0 0 1 4.33-3.178V9.423c-3.94.082-7.11 3.313-7.11 7.288 0 1.984.79 3.782 2.07 5.096a7.21 7.21 0 0 0 4.044 1.233c4.011 0 7.263-3.264 7.263-7.29V7.704Z" fill="#000"/>
  <path d="M21.503 6.358v-.84a5.46 5.46 0 0 1-2.908-.833 5.487 5.487 0 0 0 2.908 1.673ZM16.087.96a5.611 5.611 0 0 1-.06-.453V0h-3.953v15.75a3.328 3.328 0 0 1-3.322 3.324 3.299 3.299 0 0 1-1.495-.356 3.314 3.314 0 0 0 2.645 1.316 3.329 3.329 0 0 0 3.322-3.323V.96h2.863ZM9.76 9.423V8.53a7.308 7.308 0 0 0-.996-.068c-4.012 0-7.264 3.263-7.264 7.289a7.289 7.289 0 0 0 3.22 6.056 7.278 7.278 0 0 1-2.07-5.096c0-3.974 3.17-7.206 7.11-7.288Z" fill="#00F2EA"/>
</svg>
